<svg id="Layer_1" data-name="Layer 1" xmlns="http://www.w3.org/2000/svg" viewBox="0 0 1917.18 500"><polygon points="999.38 330.63 999.38 388.58 978.02 396.59 981.46 360.25 966.08 401.06 951.16 406.65 939.18 371.2 939.18 411.14 917.81 419.15 917.81 330.63 945.24 330.63 958.64 368.17 972.4 330.63 999.38 330.63"/><path d="M1005.32,321.6H911.89L908,317.72v-18.8H1009.2v18.8Z"/><path d="M1020.48,289.89H896.78l-9.8-9.8V269.62h143.3v10.47Z"/><path d="M231.41,196.72V38.14H263.7l59,86.42h-14l58.8-86.42h32.29V196.72h-44.1V111.2l6.46,1.78L329.85,159.3H301.34L269.27,113l6.23-1.78v85.52Z"/><path d="M412.48,196.72,472.83,38.14h45.44L578,196.72H531.63L487.31,62h16L457.91,196.72ZM451.68,170V135.25h88.64V170Z"/><path d="M641,199.39q-20.26,0-35.3-5.9A79.57,79.57,0,0,1,578,174.67l27.84-27.84a66.63,66.63,0,0,0,18.26,12.59,49.11,49.11,0,0,0,20.49,4.34q9.13,0,13.81-2.79t4.68-7.68a10,10,0,0,0-4-8.13,40.15,40.15,0,0,0-10.58-5.79q-6.57-2.55-14.48-5.23a137,137,0,0,1-15.7-6.46,70.6,70.6,0,0,1-14.36-9.25,40.66,40.66,0,0,1-10.58-13.58q-4-8.13-4-19.94,0-15.36,7.35-26.5a46.75,46.75,0,0,1,20.71-17q13.36-5.9,31.4-5.9a94,94,0,0,1,33.08,5.68A66.48,66.48,0,0,1,707.14,57.3L679.07,85.14a55.17,55.17,0,0,0-14.7-10.58,37.24,37.24,0,0,0-16-3.45q-6.92,0-11,2.22A7.18,7.18,0,0,0,633.19,80a9.24,9.24,0,0,0,4,7.69,42.69,42.69,0,0,0,10.58,5.46q6.57,2.45,14.48,5.12a147.79,147.79,0,0,1,15.7,6.35A62.9,62.9,0,0,1,692.33,114a42.68,42.68,0,0,1,10.58,14.14q4,8.48,4,20.49,0,24.28-17.26,37.53T641,199.39Z"/><path d="M720.33,196.72V38.14h44.55V196.72Zm96.22,0-55.46-82.63,52.79-75.95h53.67l-61,82.41V106.3L870,196.72Z"/><path d="M1041.33,196.73h-6.48a157.48,157.48,0,0,0-45.26-16.46L986.21,170l-11.42-34.74L958.61,86,942,135.26,930.3,170l-3.51,10.43a157.77,157.77,0,0,0-44.45,16.3h-6.49L936.21,38.15h45.44Z"/><path d="M1052.08,196.72V38.14h44.54V196.72Zm36.08-63.25V102.73h26.95q9.14,0,13.92-4.45a15.38,15.38,0,0,0,4.79-11.81,15.36,15.36,0,0,0-4.79-11.8q-4.79-4.45-13.92-4.45h-26.95V38.14h34.08q16.47,0,29,6a48,48,0,0,1,19.6,16.7q7.13,10.69,7.13,25a43.46,43.46,0,0,1-7.24,24.94,48.25,48.25,0,0,1-20.16,16.7q-12.91,6-30.51,6Zm49.45,63.25L1094.4,129l40.09-8.68,53.67,76.39Z"/><path d="M1199.3,196.72V38.14h44.54V196.72Zm36.08-121.6v-37h83.74v37Zm0,58.79V97.83h76.84v36.08Zm0,62.81v-37h85.08v37Z"/><path d="M1339.67,196.72V38.14H1372l59,86.42h-14l58.8-86.42H1508V196.72h-44.1V111.2l6.46,1.78-32.29,46.32H1409.6L1377.53,113l6.23-1.78v85.52Z"/><path d="M1520.29,196.72l60.36-158.58h45.43l59.69,158.58h-46.33L1595.12,62h16l-45.44,134.75Zm39.2-26.73V135.25h88.64V170Z"/><path d="M958.6,226A104.67,104.67,0,1,1,853.93,330.63,104.78,104.78,0,0,1,958.6,226m0-29.24a133.91,133.91,0,1,0,133.9,133.91A133.91,133.91,0,0,0,958.6,196.72Z"/></svg>